<svg xmlns="http://www.w3.org/2000/svg" viewBox="-1 43 478 171" fill="currentColor">
  <path d="M87.01 53.42Q91.70 53.42 95.26 56.20Q98.83 58.98 98.83 64.45Q98.83 69.92 92.77 81.59Q86.72 93.26 78.22 105.42Q69.73 117.58 58.98 131.25Q41.99 152.93 26.37 170.21Q26.27 171.39 25.54 174.56Q24.80 177.73 24.80 180.96Q24.80 184.18 27.78 186.77Q30.76 189.36 35.16 189.36Q39.55 189.36 44.58 186.23Q49.61 183.11 53.32 179.30Q63.09 169.24 65.43 169.24Q67.77 169.24 67.77 176.37L67.77 178.32Q67.77 182.13 66.41 183.89Q58.20 193.95 47.95 198.88Q37.70 203.81 28.52 203.81Q19.34 203.81 14.55 198.19Q9.77 192.58 9.77 182.81Q9.77 163.77 19.97 138.04Q30.18 112.30 42.97 94.24Q71.78 53.42 87.01 53.42M82.62 69.63Q82.62 68.16 81.64 68.16Q78.22 68.16 63.67 87.70Q49.12 107.23 42.63 118.85Q36.13 130.47 30.37 148.05Q41.89 134.38 62.26 105.42Q82.62 76.46 82.62 69.63M140.33 169.34Q142.19 169.34 142.58 172.17Q142.97 175 142.97 178.03Q142.97 181.05 142.38 182.23Q139.55 187.70 129.98 195.56Q120.41 203.42 111.82 203.42Q106.54 203.42 102.05 200.24Q97.56 197.07 97.56 189.16Q97.56 181.25 101.76 173.63Q77.54 204 63.77 204Q58.30 204 54.93 200.10Q51.56 196.19 51.56 192.04Q51.56 187.89 52.73 183.45Q53.91 179 55.22 175.49Q56.54 171.97 59.13 166.80Q61.72 161.62 62.99 159.28Q64.26 156.93 67.04 152.20Q69.82 147.46 74.37 139.45Q78.91 131.45 81.88 127.59Q84.86 123.73 87.70 123.68Q90.53 123.63 92.68 125.98Q94.82 128.32 94.82 129.79Q94.82 131.25 88.28 142.97Q68.95 177.93 68.95 183.69Q68.95 185.16 70.02 185.16Q74.71 185.16 93.36 164.84Q112.01 144.53 114.94 138.82Q117.87 133.11 120.65 129.20Q123.44 125.29 124.80 124.41Q129 121.68 135.64 121.48Q136.72 121.48 137.30 121.58Q137.89 121.68 138.67 123.24Q139.45 124.80 139.45 125.68Q138.57 128.42 131.69 140.23Q124.80 152.05 124.02 153.61Q112.50 177.44 112.50 184.67Q112.50 188.77 115.63 188.77Q121.29 187.99 129.30 179.69Q132.23 176.66 135.11 173.54Q137.99 170.41 138.67 169.87Q139.36 169.34 140.33 169.34M136.72 200.59L131.93 200.39L130.18 200.39Q129.20 200.10 128.08 199.22Q126.95 198.34 126.37 197.95Q125.78 197.56 125.78 196.53Q125.78 195.51 126.56 192.97Q145.61 151.07 163.38 125.98Q165.33 123.24 169.68 121.83Q174.02 120.41 178.13 120.41Q180.57 120.41 180.57 124.22Q180.57 125.29 179.79 127.10Q179 128.91 175.88 133.01Q172.75 137.11 168.46 142.38Q164.16 147.66 163.57 148.44Q176.95 134.57 187.74 127.78Q198.54 121 203.37 121Q208.20 121 210.79 123.78Q213.38 126.56 213.38 129.74Q213.38 132.91 212.94 135.01Q212.50 137.11 211.33 139.40Q210.16 141.70 209.33 143.31Q208.50 144.92 206.54 147.51Q204.59 150.10 203.86 151.07Q203.13 152.05 200.83 154.79Q198.54 157.52 198.34 157.81Q201.07 155.08 205.96 149.71Q210.84 144.34 214.21 140.72Q217.58 137.11 222.66 132.57Q227.73 128.03 232.13 125.20Q242.68 118.55 253.52 118.55Q257.23 118.55 259.77 120.90Q262.30 123.24 262.30 126.51Q262.30 129.79 254.39 142.14Q246.48 154.49 238.62 166.94Q230.76 179.39 230.76 182.62Q230.76 187.11 232.42 187.94Q234.08 188.77 236.43 188.57Q238.77 188.38 243.02 185.55Q247.27 182.71 250.59 179.69Q255.96 174.80 260.55 170.21Q261.52 169.34 262.70 169.34Q264.55 169.34 264.94 172.17Q265.33 175 265.33 178.03Q265.33 181.05 264.75 182.23Q261.91 187.70 252.25 195.61Q242.58 203.52 233.69 203.52Q232.62 203.52 232.13 203.42Q222.07 202.44 218.21 197.90Q214.36 193.36 214.36 187.11Q214.36 180.86 218.60 171.97Q222.85 163.09 227.93 155.86Q233.01 148.63 237.26 142.82Q241.50 137.01 241.50 136.52Q241.50 136.04 240.72 136.04Q237.70 136.04 227.25 145.80Q209.38 162.50 196.39 178.03Q192.97 182.13 180.18 198.83Q178.71 200.78 175.54 200.78Q172.36 200.78 168.95 199.56Q165.53 198.34 165.53 196.39Q165.53 195.41 181.05 168.99Q196.58 142.58 196.58 140.19Q196.58 137.79 193.70 137.79Q190.82 137.79 181.84 146.39Q157.13 170.02 143.55 193.36Q142.68 194.73 140.14 197.66Q137.60 200.59 136.72 200.59M321.97 92.77Q321.97 98.34 316.80 103.96Q311.62 109.57 306.01 109.57Q300.39 109.57 300.39 103.71Q300.39 97.85 305.32 92.53Q310.25 87.21 316.21 87.21Q318.85 87.21 320.41 88.67Q321.97 90.14 321.97 92.77M306.15 178.03Q306.15 180.96 305.57 182.23Q300.78 191.99 290.33 198Q279.88 204 272.17 204Q264.45 204 258.89 198.83Q253.32 193.65 253.32 188.28Q253.32 182.91 258.69 172.66Q264.06 162.40 269.43 153.71Q274.80 145.02 274.80 144.29Q274.80 143.55 272.80 141.41Q270.80 139.26 270.80 138.23Q270.80 137.21 274.85 132.86Q278.91 128.52 284.72 124.27Q290.53 120.02 293.60 120.02Q296.68 120.02 299.12 122.75Q301.56 125.49 301.56 127.73Q301.56 129.98 278.32 170.02Q278.03 170.61 276.71 172.61Q275.39 174.61 274.66 175.93Q273.93 177.25 272.95 179.10Q271 183.01 271 185.64Q271 188.96 275.49 188.96Q279.98 188.96 284.81 185.89Q289.65 182.81 293.16 179.10Q302.34 169.24 303.61 169.24Q306.15 169.24 306.15 178.03M349.90 184.96Q349.90 189.26 355.76 189.26Q358.89 189.26 363.62 186.13Q368.36 183.01 372.17 179.30Q382.32 169.24 383.69 169.24Q386.23 169.24 386.23 176.56Q386.23 183.89 381.64 186.62Q367.68 199.22 360.06 201.95Q355.76 203.42 350.59 203.32Q345.41 203.22 340.33 198.83Q335.25 194.43 335.25 188.13Q335.25 181.84 338.57 173.83Q341.89 165.82 345.36 160.11Q348.83 154.39 353.91 146.83Q358.98 139.26 359.28 137.40L359.08 137.21Q355.86 137.50 343.12 149.90Q330.37 162.30 322.07 171.48Q313.77 180.66 302.25 196Q299.02 200.20 296.97 200.20Q294.92 200.20 291.46 198.88Q287.99 197.56 287.21 196.97Q286.43 196.39 286.43 195.21Q286.43 194.04 287.11 192.33Q287.79 190.63 288.43 189.50Q289.06 188.38 290.53 186.04Q291.99 183.69 296.34 176.12Q300.68 168.55 309.67 153.52Q318.65 138.48 320.41 135.35Q324.12 128.91 326.46 125.98Q330.86 120.41 341.31 120.41Q343.65 120.41 343.65 123.34Q343.65 127.93 335.16 140.63L331.05 146.78Q347.95 128.03 359.57 123.05Q365.23 120.61 369.78 120.61Q374.32 120.61 377 123.05Q379.69 125.49 379.69 128.47Q379.69 131.45 377.64 135.60Q375.59 139.75 373.49 143.02Q371.39 146.29 367.97 151.27Q364.55 156.25 364.26 156.69Q363.96 157.13 362.74 159.03Q361.52 160.94 360.94 161.82Q360.35 162.70 358.98 164.89Q357.62 167.09 356.79 168.55Q355.96 170.02 354.74 172.17Q353.52 174.32 352.78 175.88Q352.05 177.44 351.27 179.30Q349.90 182.71 349.90 184.96M451.56 125.78Q458.98 125.78 458.98 130.86Q458.98 133.59 457.71 134.86Q456.45 136.13 452.29 143.31Q448.14 150.49 443.12 161.67Q438.09 172.85 436.62 180.76Q436.33 181.74 436.33 183.50Q436.33 188.87 439.26 188.87Q442.19 188.87 446.19 186.08Q450.20 183.30 453.32 180.13Q456.45 176.95 459.42 173.63Q462.40 170.31 462.99 169.82Q463.57 169.34 464.75 169.34Q466.60 169.34 466.99 172.17Q467.38 175 467.38 178.03Q467.38 181.05 466.80 182.23Q463.96 187.79 454.35 195.61Q444.73 203.42 436.87 203.42Q429 203.42 425.29 198.63Q421.58 193.85 421.58 188.04Q421.58 182.23 423.54 177.83Q415.43 188.38 404.93 195.70Q394.43 203.03 387.79 203.03Q381.15 203.03 376.95 199.02Q371.58 194.04 371.58 185.21Q371.58 176.37 375.54 167.43Q379.49 158.50 385.94 151.12Q392.38 143.75 400.10 137.70Q416.31 125 429.98 125Q435.25 125 438.57 126.76Q441.89 128.52 442.77 131.15Q445.12 127.64 446.73 126.71Q448.34 125.78 451.56 125.78M438.57 136.62Q421.88 136.62 404 155.18Q397.66 161.82 392.33 171.09Q387.01 180.37 387.01 183.79Q387.01 187.21 388.96 187.21Q391.70 187.21 404.20 176.42Q416.70 165.63 420.80 160.55Q425.29 154.88 438.57 136.62"/>
</svg>
